# xmcd
#
# Track frame offsets:
#	150
#	16245
#	27148
#	38108
#	50667
#	61083
#	71130
#	81557
#	94187
#	106713
#	118796
#	126800
#	142119
#	155469
#	172146
#	191858
#	208280
#	221632
#
# Disc length: 3012 seconds
#
# Revision: 0
# Processed by: cddbd v1.5.2PL0 Copyright (c) Steve Scherf et al.
# Submitted via: EasyCDDAExtractor 11.0.2.1
#
DISCID=110bc212
DTITLE=Trebedes - De Amores y Coplas
DYEAR=1900
DGENRE=
TTITLE0=Jota del cribero
TTITLE1=Jota del molino
TTITLE2=El carro
TTITLE3=Seguidillas de Brunete
TTITLE4=El cura
TTITLE5=Baile de tres
TTITLE6=Romance de la pedigueña
TTITLE7=Coplas de aupa
TTITLE8=Jota de Torreiglesias
TTITLE9=Los peines
TTITLE10=La chica segoviana
TTITLE11=Jota del vino
TTITLE12=Seguidillas de Avila
TTITLE13=Romance de Teresa y Marcelino
TTITLE14=Rabeladas
TTITLE15=Jota de las flores
TTITLE16=Jota burrera
TTITLE17=Teresa...
EXTD=
EXTT0=
EXTT1=
EXTT2=
EXTT3=
EXTT4=
EXTT5=
EXTT6=
EXTT7=
EXTT8=
EXTT9=
EXTT10=
EXTT11=
EXTT12=
EXTT13=
EXTT14=
EXTT15=
EXTT16=
EXTT17=
PLAYORDER=
